<svg
                        width="16"
                        height="16"
                        viewBox="0 0 16 16"
                        fill="none"
                        xmlns="http://www.w3.org/2000/svg"
                      >
                        <path
                          d="M8.00004 4.66807L1.33337 11.3347V14.668H4.66671L11.3334 8.00138M8.00004 4.66807L10.3905 2.27752L10.392 2.2761C10.721 1.94703 10.8859 1.78221 11.0759 1.72048C11.2433 1.66609 11.4235 1.66609 11.591 1.72048C11.7808 1.78217 11.9455 1.9468 12.274 2.2754L13.7239 3.72523C14.0539 4.05525 14.219 4.22033 14.2808 4.41061C14.3352 4.57798 14.3351 4.75826 14.2808 4.92563C14.219 5.11577 14.0542 5.2806 13.7246 5.61014L13.7239 5.61085L11.3334 8.00138M8.00004 4.66807L11.3334 8.00138"
                          stroke="#475467"
                          strokeWidth="2"
                          strokeLinecap="round"
                          strokeLinejoin="round"
                        />
                      </svg>